<svg width="360" height="360" viewBox="0 0 360 360" fill="none" xmlns="http://www.w3.org/2000/svg">
<g clip-path="url(#clip0_36_19)">
<path d="M37.7721 59.0863C35.6502 43.7966 46.1694 29.6599 61.2674 27.5111L252.628 0.275552C267.727 -1.87328 281.686 8.7795 283.807 24.0692L322.228 300.913C324.349 316.203 313.831 330.34 298.732 332.489L107.371 359.725C92.2732 361.873 78.3143 351.22 76.1925 335.931L37.7721 59.0863Z" fill="url(#paint0_linear_36_19)"/>
<path d="M51.4407 57.1415C50.3798 49.4966 55.6394 42.4282 63.1884 41.3538L254.549 14.1183C262.099 13.0438 269.078 18.3702 270.139 26.0151L308.559 302.859C309.62 310.504 304.36 317.573 296.812 318.647L105.451 345.882C97.9012 346.957 90.9217 341.631 89.8605 333.986L51.4407 57.1415Z" fill="white"/>
<path d="M248.893 111.896L193.879 256.182C192.743 259.161 188.822 259.725 186.883 257.19L92.5071 133.754C90.3943 130.991 92.4126 127.004 95.8543 127.143L171.79 130.205C172.273 130.225 172.758 130.156 173.217 130.003L243.816 106.494C247.073 105.41 250.127 108.659 248.893 111.896Z" fill="url(#paint1_linear_36_19)"/>
<path d="M202.688 94.3167L149.514 112.82C148.64 113.124 148.083 113.989 148.159 114.923L152.937 172.972C153.049 174.339 154.428 175.221 155.691 174.732L170.419 169.044C171.798 168.511 173.266 169.603 173.179 171.096L171.826 194.177C171.736 195.73 173.32 196.827 174.712 196.175L183.711 191.964C185.106 191.313 186.69 192.411 186.596 193.968L184.391 230.234C184.253 232.503 187.319 233.3 188.26 231.24L188.887 229.865L220.723 133.51C221.256 131.897 219.726 130.356 218.135 130.905L202.889 136.16C201.457 136.653 200.006 135.439 200.215 133.92L205.367 96.554C205.577 95.0337 204.122 93.818 202.688 94.3167Z" fill="url(#paint2_linear_36_19)"/>
</g>
<defs>
<linearGradient id="paint0_linear_36_19" x1="48.6122" y1="14.8192" x2="292.875" y2="361.548" gradientUnits="userSpaceOnUse">
<stop stop-color="#49C7FF"/>
<stop offset="1" stop-color="#BD36FF"/>
</linearGradient>
<linearGradient id="paint1_linear_36_19" x1="89.1358" y1="123.2" x2="200.434" y2="235.633" gradientUnits="userSpaceOnUse">
<stop stop-color="#41D1FF"/>
<stop offset="1" stop-color="#BD34FE"/>
</linearGradient>
<linearGradient id="paint2_linear_36_19" x1="163.603" y1="102.784" x2="196.848" y2="216.051" gradientUnits="userSpaceOnUse">
<stop stop-color="#FFEA83"/>
<stop offset="0.0833333" stop-color="#FFDD35"/>
<stop offset="1" stop-color="#FFA800"/>
</linearGradient>
<clipPath id="clip0_36_19">
<rect width="360" height="360" fill="white"/>
</clipPath>
</defs>
</svg>
