<svg width="360" height="360" viewBox="0 0 360 360" fill="none" xmlns="http://www.w3.org/2000/svg">
    <g clip-path="url(#clip0_32_7)">
        <path
            d="M234.217 251.566H125.783C95.8401 251.566 71.5664 275.84 71.5664 305.783C71.5664 335.726 95.8401 360 125.783 360H234.217C264.16 360 288.434 335.726 288.434 305.783C288.434 275.84 264.16 251.566 234.217 251.566Z"
            fill="#1AD1A5" />
        <path
            d="M180.002 229.879C242.283 229.879 292.773 179.39 292.773 117.108C292.773 54.8262 242.283 4.33691 180.002 4.33691C117.72 4.33691 67.2305 54.8262 67.2305 117.108C67.2305 179.39 117.72 229.879 180.002 229.879Z"
            fill="black" fill-opacity="0.3" />
        <path
            d="M180 225.542C239.886 225.542 288.434 176.995 288.434 117.109C288.434 57.2222 239.886 8.6748 180 8.6748C120.114 8.6748 71.5664 57.2222 71.5664 117.109C71.5664 176.995 120.114 225.542 180 225.542Z"
            fill="white" />
        <path
            d="M180 165.687C206.829 165.687 228.578 143.938 228.578 117.109C228.578 90.2795 206.829 68.5303 180 68.5303C153.171 68.5303 131.422 90.2795 131.422 117.109C131.422 143.938 153.171 165.687 180 165.687Z"
            fill="#FF9903" />
    </g>
    <defs>
        <clipPath id="clip0_32_7">
            <rect width="360" height="360" fill="white" />
        </clipPath>
    </defs>
</svg>