<svg width="1215" height="2464" viewBox="0 0 1215 2464" fill="none" xmlns="http://www.w3.org/2000/svg">
    <path
        d="M712.569 2394.19L644.522 2324.89L643.971 1870.65L643.423 1416.4L638.98 1415.76C634.688 1415.15 512.178 1476.55 167.807 1651.92C79.8929 1696.69 7.45552 1732.82 6.83923 1732.2C6.22293 1731.59 7.92155 1721.04 10.6154 1708.76C56.9136 1497.6 174.935 1262.67 321.752 1089.42C445.956 942.859 593.93 822.721 764.83 729.693L781.707 720.506V1184.39L787.16 1185.76C801.242 1189.29 858.842 1153.26 891.758 1120.32C926.382 1085.68 949.01 1048.9 964.686 1001.81C993.307 915.805 980.483 818.522 930.583 743.147C913.015 716.607 892.917 694.745 743.713 539.868C580.798 370.765 563.407 351.936 544.169 323.85C529.413 302.312 519.998 282.584 513.193 258.943C506.272 234.903 506.403 184.626 513.448 159.857C527.165 111.629 559.191 67.1757 599.494 40.4268C625.526 23.1467 668.353 6.88566 690.108 6.01893L697.865 5.70969L689.155 4.2724C674.009 1.77238 715.122 -0.871363 731.62 1.54155C744.033 3.35776 744.702 3.67789 737.064 4.14827C729.127 4.6339 729.514 4.84732 741.42 6.54594C802.816 15.3091 862.801 54.7845 907.893 116.1C928.49 144.11 1110.88 440.007 1202.71 594.407C1216.7 617.927 1218.48 624.46 1208.27 614.862C1195.36 602.717 917.325 312.086 851.011 241.415C774.887 160.286 766.291 152.144 746.864 142.749C734.174 136.61 730.679 135.907 713.109 135.946C688.754 136 677.299 140.926 659.429 159.03C642.665 176.02 637.212 190.408 638.483 214.3C639.518 233.712 644.847 246.757 658.333 262.9C662.53 267.924 732.935 341.851 814.789 427.185C896.643 512.516 973.828 593.114 986.306 606.289C1046.39 669.715 1083.62 739.656 1101.01 821.811C1108.61 857.717 1110.71 929.089 1105.27 966.701C1094.05 1044.32 1061.22 1119.48 1012.52 1179.03C993.869 1201.84 955.173 1238.12 931.896 1254.62C904.208 1274.24 892.072 1281.28 833.136 1311.87L782.796 1338L781.707 1900.75L780.619 2463.49L712.569 2394.19ZM363.438 1408.28C511.113 1332.57 609.485 1281.7 624.132 1273.47C644.916 1261.79 643.338 1274.2 644.047 1116.96C644.392 1040.91 644.128 976.472 643.462 973.778C641.308 965.067 632.634 967.637 614.396 982.402C460.039 1107.34 343.662 1250.25 247.422 1433.05C230.539 1465.11 228.794 1474.23 240.236 1470.59C242.638 1469.83 298.076 1441.79 363.436 1408.28H363.438ZM0.0774201 1738.52C0.18195 1735.98 0.698069 1735.47 1.39276 1737.2C2.02212 1738.77 1.94372 1740.65 1.22072 1741.38C0.497719 1742.1 -0.0162217 1740.82 0.0774201 1738.52Z"
        fill="#C62B47" />
</svg>